<svg xmlns="http://www.w3.org/2000/svg" viewBox="0 0 400 400" width="400" height="400">
  <rect x="0" y="0" width="400" height="400" rx="60" ry="60" fill="#0a0e1a"/>
  <rect x="0" y="0" width="400" height="16" fill="#FF9933"/>
  <rect x="0" y="16" width="400" height="12" fill="#FFFFFF"/>
  <rect x="0" y="28" width="400" height="16" fill="#138808"/>
  <rect x="0" y="356" width="400" height="16" fill="#FF9933"/>
  <rect x="0" y="372" width="400" height="12" fill="#FFFFFF"/>
  <rect x="0" y="384" width="400" height="16" fill="#138808"/>
  <rect x="0" y="0" width="60" height="44" fill="#0a0e1a"/>
  <rect x="340" y="0" width="60" height="44" fill="#0a0e1a"/>
  <rect x="0" y="356" width="60" height="44" fill="#0a0e1a"/>
  <rect x="340" y="356" width="60" height="44" fill="#0a0e1a"/>
  <g transform="translate(200,200)" opacity="0.07" stroke="#4169e1" stroke-width="1.5" fill="none">
    <circle r="75"/><circle r="60"/>
    <circle r="8" fill="#4169e1" stroke="none"/>
    <line x1="0" y1="-60" x2="0" y2="-75"/><line x1="0" y1="60" x2="0" y2="75"/>
    <line x1="-60" y1="0" x2="-75" y2="0"/><line x1="60" y1="0" x2="75" y2="0"/>
    <line x1="-42" y1="-42" x2="-53" y2="-53"/><line x1="42" y1="-42" x2="53" y2="-53"/>
    <line x1="-42" y1="42" x2="-53" y2="53"/><line x1="42" y1="42" x2="53" y2="53"/>
    <line x1="-15" y1="-58" x2="-19" y2="-73"/><line x1="15" y1="-58" x2="19" y2="-73"/>
    <line x1="-15" y1="58" x2="-19" y2="73"/><line x1="15" y1="58" x2="19" y2="73"/>
    <line x1="-58" y1="-15" x2="-73" y2="-19"/><line x1="58" y1="-15" x2="73" y2="-19"/>
    <line x1="-58" y1="15" x2="-73" y2="19"/><line x1="58" y1="15" x2="73" y2="19"/>
    <line x1="-56" y1="-28" x2="-70" y2="-35"/><line x1="56" y1="-28" x2="70" y2="-35"/>
    <line x1="-56" y1="28" x2="-70" y2="35"/><line x1="56" y1="28" x2="70" y2="35"/>
    <line x1="-28" y1="-56" x2="-35" y2="-70"/><line x1="28" y1="-56" x2="35" y2="-70"/>
    <line x1="-28" y1="56" x2="-35" y2="70"/><line x1="28" y1="56" x2="35" y2="70"/>
  </g>
  <line x1="55" y1="245" x2="345" y2="245" stroke="#1e2d45" stroke-width="0.7"/>
  <line x1="55" y1="215" x2="345" y2="215" stroke="#1e2d45" stroke-width="0.7"/>
  <line x1="55" y1="185" x2="345" y2="185" stroke="#1e2d45" stroke-width="0.7"/>
  <line x1="55" y1="155" x2="345" y2="155" stroke="#1e2d45" stroke-width="0.7"/>
  <line x1="90" y1="220" x2="90" y2="250" stroke="#ef4444" stroke-width="1.5"/>
  <rect x="82" y="224" width="16" height="18" fill="#ef4444" rx="2"/>
  <line x1="128" y1="202" x2="128" y2="248" stroke="#22c55e" stroke-width="1.5"/>
  <rect x="120" y="208" width="16" height="24" fill="#22c55e" rx="2"/>
  <line x1="166" y1="188" x2="166" y2="232" stroke="#22c55e" stroke-width="1.5"/>
  <rect x="158" y="193" width="16" height="22" fill="#22c55e" rx="2"/>
  <line x1="204" y1="182" x2="204" y2="222" stroke="#ef4444" stroke-width="1.5"/>
  <rect x="196" y="187" width="16" height="18" fill="#ef4444" rx="2"/>
  <line x1="242" y1="155" x2="242" y2="208" stroke="#22c55e" stroke-width="1.5"/>
  <rect x="234" y="160" width="16" height="30" fill="#22c55e" rx="2"/>
  <line x1="280" y1="135" x2="280" y2="188" stroke="#22c55e" stroke-width="1.5"/>
  <rect x="272" y="140" width="16" height="28" fill="#22c55e" rx="2"/>
  <line x1="318" y1="112" x2="318" y2="165" stroke="#22c55e" stroke-width="1.5"/>
  <rect x="310" y="118" width="16" height="26" fill="#22c55e" rx="2"/>
  <polyline points="90,237 128,222 166,206 204,200 242,178 280,153 318,132" fill="none" stroke="#00d4aa" stroke-width="6" stroke-linecap="round" stroke-linejoin="round" opacity="0.2"/>
  <polyline points="90,237 128,222 166,206 204,200 242,178 280,153 318,132" fill="none" stroke="#00d4aa" stroke-width="2.5" stroke-linecap="round" stroke-linejoin="round"/>
  <polygon points="318,108 309,128 327,128" fill="#00d4aa"/>
  <text x="200" y="225" font-family="Arial,sans-serif" font-size="170" font-weight="700" fill="#00d4aa" fill-opacity="0.04" text-anchor="middle" dominant-baseline="middle">₹</text>
  <text x="200" y="308" font-family="Georgia,serif" font-size="24" font-weight="700" fill="#e2e8f0" text-anchor="middle" letter-spacing="1">IndiaStock</text>
  <text x="200" y="333" font-family="Courier New,monospace" font-size="12" fill="#00d4aa" text-anchor="middle" letter-spacing="5">ANALYSER</text>
  <rect x="1" y="1" width="398" height="398" rx="59" ry="59" fill="none" stroke="#1e2d45" stroke-width="2"/>
</svg>
